<?xml version="1.0" encoding="UTF-8"?>
<svg width="185px" height="46px" viewBox="0 0 185 46" version="1.1" xmlns="http://www.w3.org/2000/svg" xmlns:xlink="http://www.w3.org/1999/xlink">
    <title>Group 2</title>
    <defs>
        <path d="M11.5758955,0.0815203908 L11.5758955,0.0815203908 L8.8042022,0.0407601954 L2.6901729,0 L1.71192821,0 C0.733683517,0 0,0.611402931 0,1.42660684 L0,3.70917778 L0.0407601954,21.9697453 L0.0815203908,35.1352884 C0.0815203908,35.9504923 0.855964103,36.5618953 1.83420879,36.5618953 L8.8449624,36.6026555 C9.82320709,36.6026555 10.5568906,35.9912525 10.5568906,35.1760486 L10.5161304,26.0457649 C10.7606916,26.0457649 11.0052528,26.0457649 11.3313343,26.0457649 C19.8502152,26.0865251 26.6164076,20.2985773 26.4533668,13.1247829 C26.290326,6.23630989 19.7279346,0.52988254 11.5758955,0.0815203908 Z" id="path-1"></path>
    </defs>
    <g id="landing" stroke="none" stroke-width="1" fill="none" fill-rule="evenodd">
        <g id="eWalletLanding" transform="translate(-319.000000, -22.000000)">
            <g id="Group-2" transform="translate(319.913868, 22.216016)">
                <path d="M102.919493,0 L119.468133,0.0815203908 C128.598416,0.122280586 132.103793,5.91022833 132.103793,11.8612169 C132.103793,17.8122054 128.476136,23.6409133 119.345852,23.5593929 L110.826971,23.5186327 L110.786211,36.6434157 L102.715692,36.6026555 L102.919493,0 Z M110.867731,17.323083 L117.104041,17.3638432 C120.853979,17.3638432 124.196315,16.5893995 124.237076,11.9019771 C124.237076,7.21455458 120.9355,6.39935068 117.144802,6.39935068 L110.908492,6.35859048 L110.867731,17.323083 Z" id="Shape" fill="#0090D0" fill-rule="nonzero"></path>
                <path d="M39.3335886,10.5158933 C47.1595461,10.5568906 52.1322899,15.7741956 52.0507695,23.6816735 C51.9692491,31.5891514 46.8334645,36.724936 39.007507,36.6844167 C31.1815495,36.6434157 26.2495658,31.4261106 26.3310862,23.5593929 C26.4533668,15.6926752 31.5483912,10.4753702 39.3335886,10.5158933 Z M39.0890274,31.5891514 C43.7764499,31.6299116 45.2030567,27.6354125 45.2438169,23.7224337 C45.2845771,19.7686948 43.9394906,15.7334354 39.2520682,15.6926752 C34.5646457,15.651915 33.178799,19.6464142 33.178799,23.6409133 C33.1380389,27.5946523 34.4831253,31.5483912 39.0890274,31.5891514 Z" id="Shape" fill="#004689" fill-rule="nonzero"></path>
                <path d="M61.4663747,28.0430144 C61.4663747,31.0185087 63.9527466,32.2413146 66.6836797,32.2820747 C68.6809292,32.2820747 71.2080613,31.5483912 71.2080613,29.1027795 C71.2080613,27.0647697 68.3956079,26.290326 63.5043844,25.1898008 C59.5506455,24.3338366 55.6376667,22.9072298 55.6784269,18.5051287 C55.7599473,12.1465382 61.2625737,10.5568906 66.6021593,10.5568906 C72.0640255,10.5976508 77.0367693,12.4318596 77.4851314,18.5458889 L71.0042604,18.5051287 C70.8412196,15.855716 68.8032098,15.1220325 66.3575981,15.0812723 C64.8087107,15.0812723 62.5668999,15.3258335 62.5261397,17.3638432 C62.4853795,19.809455 66.3575981,20.1762967 70.2298167,21.1137812 C74.2243158,22.0512657 78.0965344,23.4778725 78.0557742,28.1245348 C77.9742538,34.6461661 72.2678264,36.7656962 66.5613991,36.724936 C60.7734513,36.6841759 55.1485444,34.4831253 54.9447434,27.9207338 L61.4663747,28.0430144 L61.4663747,28.0430144 Z" id="Path" fill="#004689" fill-rule="nonzero"></path>
                <path d="M91.3028377,10.8829722 L96.3571019,10.9237324 L96.3163417,15.5296344 L91.2620775,15.4888742 L91.0990367,28.6951776 C91.0582765,31.0185087 91.6289192,31.5891514 93.9930106,31.6299116 C94.7266941,31.6299116 95.4196174,31.5891514 96.1125407,31.4261106 L96.0310203,36.8064564 C94.6859339,36.9694972 93.3816076,37.0917778 91.995761,37.0102574 C87.7567007,36.9694972 84.0882831,35.9912525 84.1698035,31.0185087 L84.3736045,15.4481141 L80.2160645,15.4073539 L80.2975849,10.8014518 L84.4551249,10.842212 L84.5366452,3.74993798 L91.3843581,3.79069817 L91.3028377,10.8829722 Z" id="Path" fill="#004689" fill-rule="nonzero"></path>
                <path d="M132.918997,20.0132559 C133.163558,13.7361858 138.625425,10.8829722 144.168811,10.9237324 C149.141555,10.9644926 155.133304,12.105778 155.255584,17.934486 L155.581666,30.6516669 C155.663186,32.8934777 156.315349,35.8689719 156.967512,36.8472166 L150.038279,36.8064564 C149.793718,36.0320127 149.182315,34.4831253 149.100795,33.6679214 C147.022025,35.9097321 143.84273,36.6434157 140.826475,36.6434157 C136.098292,36.6026555 132.307594,34.2793243 132.185314,29.2658203 C132.063033,23.7224337 136.261333,22.4588677 140.459633,21.8882249 C144.698694,21.3583424 148.530152,21.4398628 148.448632,18.7089297 C148.367111,15.7741956 146.369862,15.3665937 143.96501,15.3665937 C141.356358,15.3665937 139.929751,17.3638432 139.76671,20.0132559 L132.918997,20.0132559 Z M148.570912,24.0892755 C147.429627,25.0675202 145.065535,25.1082804 142.946005,25.4751221 C140.826475,25.8419639 138.910746,26.5756474 139.033026,29.0620193 C139.114547,31.5483912 141.071036,32.2005544 143.272087,32.2005544 C148.611672,32.2413146 148.693193,28.0837746 148.652433,26.6164076 L148.570912,24.0892755 Z" id="Shape" fill="#0090D0" fill-rule="nonzero"></path>
                <path d="M173.516152,39.3743487 C172.089545,43.4096081 169.684693,45.0400159 164.87499,44.9992557 C163.489144,44.9992557 162.021777,44.9177353 160.59517,44.7546945 L160.432129,39.0890274 C161.817976,39.2520682 163.163062,39.3335886 164.548909,39.3335886 C166.994521,39.0890274 167.687444,36.6434157 166.87224,34.6054059 L157.293594,10.9644926 L164.83423,11.0052528 L171.02978,28.2468154 L171.1113,28.2468154 L176.247085,11.046013 L183.5024,11.0867731 L173.516152,39.3743487 Z" id="Path" fill="#0090D0" fill-rule="nonzero"></path>
                <g id="Group" transform="translate(0.000000, 0.000000)">
                    <g id="SVGID_1_-link" fill="#004689" fill-rule="nonzero">
                        <path d="M11.5758955,0.0815203908 L11.5758955,0.0815203908 L8.8042022,0.0407601954 L2.6901729,0 L1.71192821,0 C0.733683517,0 -2.89618607e-15,0.611402931 -2.89618607e-15,1.42660684 L-2.89618607e-15,3.70917778 L0.0407601954,21.9697453 L0.0815203908,35.1352884 C0.0815203908,35.9504923 0.855964103,36.5618953 1.83420879,36.5618953 L8.8449624,36.6026555 C9.82320709,36.6026555 10.5568906,35.9912525 10.5568906,35.1760486 L10.5161304,26.0457649 C10.7606916,26.0457649 11.0052528,26.0457649 11.3313343,26.0457649 C19.8502152,26.0865251 26.6164076,20.2985773 26.4533668,13.1247829 C26.290326,6.23630989 19.7279346,0.52988254 11.5758955,0.0815203908 Z" id="SVGID_1_"></path>
                    </g>
                    <g id="Group-3">
                        <mask id="mask-2" fill="white">
                            <use xlink:href="#path-1"></use>
                        </mask>
                        <use id="Path" fill="#004689" fill-rule="nonzero" xlink:href="#path-1"></use>
                        <g id="Group" mask="url(#mask-2)" fill="#FCAF17" fill-rule="nonzero">
                            <g transform="translate(-6.317830, 5.828708)" id="Path">
                                <path d="M24.0077551,0.0815203908 L4.64666227,-5.79237215e-15 L3.5053768,3.83145837 L20.9915006,3.91297876 C21.1545414,3.91297876 21.3175822,3.83145837 21.4398628,3.70917778 L24.3338366,1.05976508 C24.7414386,0.692923322 24.5376376,0.0815203908 24.0077551,0.0815203908 Z"></path>
                                <path d="M17.5676442,5.95098853 L2.85321368,5.91022833 L1.71192821,9.7416867 L14.5513898,9.78244689 C14.7144305,9.78244689 14.8774713,9.7009265 14.9997519,9.57864592 L17.8937258,6.92923322 C18.3420879,6.56239146 18.0975268,5.95098853 17.5676442,5.95098853 Z"></path>
                                <path d="M11.1682935,11.8204567 L1.14128547,11.7796965 L2.89618607e-15,15.6111548 L8.11127888,15.651915 C8.27431966,15.651915 8.43736045,15.5703946 8.55964103,15.4481141 L11.4536149,12.7987014 C11.9019771,12.4318596 11.6981761,11.8204567 11.1682935,11.8204567 Z"></path>
                            </g>
                        </g>
                    </g>
                </g>
            </g>
        </g>
    </g>
</svg>