<?xml version="1.0" encoding="utf-8"?>
<!-- Generator: Adobe Illustrator 24.0.0, SVG Export Plug-In . SVG Version: 6.00 Build 0)  -->
<svg version="1.1" id="Layer_1" xmlns="http://www.w3.org/2000/svg" xmlns:xlink="http://www.w3.org/1999/xlink" x="0px" y="0px"
	 viewBox="0 0 198.3 198.9" style="enable-background:new 0 0 198.3 198.9;" xml:space="preserve">
<style type="text/css">
	.st0{fill:#0E90D0;}
	.st1{fill:#164987;}
	.st2{clip-path:url(#SVGID_2_);}
	.st3{clip-path:url(#SVGID_4_);}
	.st4{fill:#FCAF1C;}
</style>
<path class="st0" d="M174.9,199.6H25c-13.4,0-24.1-10.9-24.1-24.1v-150C0.9,12.1,11.8,1.4,25,1.4h149.8c13.4,0,24.1,10.9,24.1,24.1
	v149.8C199.1,188.7,188.2,199.6,174.9,199.6z"/>
<g>
	<g>
		<g>
			<path id="SVGID_5_" class="st1" d="M93.7,30.6L93.7,30.6l-10.8-0.3l-23.4-0.1h-3.7c-3.7,0-6.6,2.3-6.5,5.5v8.7l0.1,70l0.1,50.5
				c0,3,3,5.5,6.8,5.5l27,0.1c3.7,0,6.6-2.3,6.5-5.5l-0.1-35c1,0,1.9,0,3,0c32.7,0.1,58.6-21.9,58-49.6
				C150.1,54.2,124.8,32.4,93.7,30.6z"/>
		</g>
		<g>
			<defs>
				<path id="SVGID_1_" d="M93.7,30.6L93.7,30.6l-10.8-0.3l-23.4-0.1h-3.7c-3.7,0-6.6,2.3-6.5,5.5v8.7l0.1,70l0.1,50.5
					c0,3,3,5.5,6.8,5.5l27,0.1c3.7,0,6.6-2.3,6.5-5.5l-0.1-35c1,0,1.9,0,3,0c32.7,0.1,58.6-21.9,58-49.6
					C150.1,54.2,124.8,32.4,93.7,30.6z"/>
			</defs>
			<clipPath id="SVGID_2_">
				<use xlink:href="#SVGID_1_"  style="overflow:visible;"/>
			</clipPath>
			<g class="st2">
				<path class="st1" d="M93.7,30.6L93.7,30.6l-10.8-0.3l-23.4-0.1h-3.7c-3.7,0-6.6,2.3-6.5,5.5v8.7l0.1,70l0.1,50.5
					c0,3,3,5.5,6.8,5.5l27,0.1c3.7,0,6.6-2.3,6.5-5.5l-0.1-35c1,0,1.9,0,3,0c32.7,0.1,58.6-21.9,58-49.6
					C150.1,54.2,124.8,32.4,93.7,30.6z"/>
			</g>
		</g>
	</g>
	<g>
		<g>
			<defs>
				<path id="SVGID_3_" d="M93.7,30.6L93.7,30.6l-10.8-0.3l-23.4-0.1h-3.7c-3.7,0-6.6,2.3-6.5,5.5v8.7l0.1,70l0.1,50.5
					c0,3,3,5.5,6.8,5.5l27,0.1c3.7,0,6.6-2.3,6.5-5.5l-0.1-35c1,0,1.9,0,3,0c32.7,0.1,58.6-21.9,58-49.6
					C150.1,54.2,124.8,32.4,93.7,30.6z"/>
			</defs>
			<clipPath id="SVGID_4_">
				<use xlink:href="#SVGID_3_"  style="overflow:visible;"/>
			</clipPath>
			<g class="st3">
				<path class="st4" d="M117.1,52.9l-74.3-0.3l-4.3,14.6l67.1,0.3c0.7,0,1.2-0.3,1.8-0.8l11-10.1C119.9,55.3,119.2,52.9,117.1,52.9
					z"/>
				<path class="st4" d="M92.4,75.4l-56.4-0.1l-4.3,14.6L81,90c0.7,0,1.2-0.3,1.8-0.8l11-10.1C95.3,77.9,94.4,75.4,92.4,75.4z"/>
				<path class="st4" d="M67.9,98l-38.5-0.1l-4.3,14.6l31.2,0.1c0.7,0,1.2-0.3,1.8-0.8l11-10.1C70.7,100.4,69.8,98,67.9,98z"/>
			</g>
		</g>
	</g>
</g>
</svg>
