<?xml version="1.0" encoding="UTF-8"?>
<svg width="200px" height="59px" viewBox="0 0 200 59" version="1.1" xmlns="http://www.w3.org/2000/svg" xmlns:xlink="http://www.w3.org/1999/xlink">
    <title>2</title>
    <g id="landing" stroke="none" stroke-width="1" fill="none" fill-rule="evenodd">
        <g id="eWalletLanding" transform="translate(-519.000000, -557.000000)" fill-rule="nonzero">
            <g id="banner" transform="translate(0.000000, 170.646563)">
                <g id="content" transform="translate(320.000000, 37.353437)">
                    <g id="Group-3" transform="translate(0.000000, 144.000000)">
                        <g id="Group-5" transform="translate(199.000000, 110.000000)">
                            <g id="2" transform="translate(0.000000, 95.000000)">
                                <path d="M12.8425253,58.5828283 C12.3257576,58.5828283 11.8214141,58.5768687 11.3087879,58.5663636 C10.2466667,58.5539394 9.1869798,58.470404 8.13851515,58.3165657 C7.16086869,58.1645455 6.21379798,57.8817172 5.32853535,57.4774747 C4.45138384,57.0765657 3.65135354,56.5508081 2.95909091,55.9205051 C2.25680808,55.2974747 1.67212121,54.5750505 1.22821212,53.7816162 C0.77940404,52.9830303 0.468805051,52.1270707 0.307230303,51.2434343 C0.132743434,50.2940404 0.0383391919,49.3340404 0.0248308081,48.3718182 C0.0140776768,48.0487879 0,46.9733333 0,46.9733333 L0,11.5930303 C0,11.5930303 0.0149935354,10.5340404 0.0249156566,10.2229293 C0.037849798,9.26218182 0.131705051,8.30367677 0.305669697,7.35574747 C0.467542424,6.46975758 0.778382828,5.61131313 1.22742424,4.81011111 C1.66970707,4.01724242 2.25115152,3.29420202 2.94920202,2.66905051 C3.64646465,2.03794949 4.44906061,1.50952525 5.32769697,1.10306061 C6.21092929,0.700073737 7.15621212,0.419242424 8.13187879,0.269970707 C9.18379798,0.114617172 10.2470707,0.0306255556 11.3129293,0.0187006061 L12.8433333,0 L187.148485,0 L188.69697,0.0194510101 C189.753535,0.0307835354 190.807071,0.114026263 191.849495,0.268469697 C192.834343,0.419614141 193.789899,0.702405051 194.682828,1.10754545 C196.443434,1.92669697 197.875758,3.22268687 198.778788,4.81384848 C199.221212,5.60951515 199.527273,6.4609697 199.686869,7.33930303 C199.862626,8.295 199.961616,9.2610404 199.981818,10.229697 C199.986869,10.6634343 199.986869,11.1293939 199.986869,11.5930303 C200,12.1673737 200,12.7140404 200,13.2651515 L200,45.3189899 C200,45.8754545 200,46.4183838 199.986869,46.9657576 C199.986869,47.4638384 199.986869,47.920101 199.979798,48.389697 C199.960606,49.3411111 199.863636,50.289899 199.689899,51.2284848 C199.532323,52.1183838 199.223232,52.9811111 198.773737,53.7861616 C198.327273,54.5710101 197.745455,55.2872727 197.051515,55.9084848 C196.358586,56.5422222 195.557576,57.0710101 194.677778,57.4745455 C193.786869,57.8819192 192.833333,58.1657576 191.849495,58.3165657 C190.80101,58.4712121 189.741414,58.5547475 188.678788,58.5663636 C188.181818,58.5768687 187.661616,58.5828283 187.156566,58.5828283 L185.318182,58.5858586 L12.8425253,58.5828283 Z" id="Path" fill="#000000"></path>
                                <path d="M37.2153535,29.7484848 C37.2315152,28.4838384 37.5646465,27.2438384 38.1837374,26.1439394 C38.8028283,25.0440404 39.6877778,24.119899 40.7561616,23.4574747 C40.0774747,22.48 39.1820202,21.6754545 38.1410101,21.1079798 C37.1,20.5405051 35.9421212,20.2255556 34.7593939,20.1882828 C32.2362626,19.9212121 29.790202,21.7107071 28.5045455,21.7107071 C27.1939394,21.7107071 25.2143434,20.2147475 23.0826263,20.2589899 C21.7038384,20.3039394 20.360101,20.7082828 19.1822222,21.4325253 C18.0044444,22.1568687 17.0328283,23.1765657 16.3620202,24.3921212 C13.4561616,29.4654545 15.6236364,36.9216162 18.4072727,41.0225253 C19.799899,43.0307071 21.4275758,45.2737374 23.5573737,45.1942424 C25.6414141,45.1070707 26.419798,43.8541414 28.9354545,43.8541414 C31.4277778,43.8541414 32.1580808,45.1942424 34.3310101,45.1436364 C36.5673737,45.1070707 37.9763636,43.1266667 39.320202,41.0994949 C40.3208081,39.6686869 41.0908081,38.0872727 41.6016162,36.4138384 C40.3023232,35.859697 39.1936364,34.9322222 38.4136364,33.7468687 C37.6336364,32.5616162 37.2168687,31.1710101 37.2153535,29.7484848 Z" id="Path" fill="#FFFFFF"></path>
                                <path d="M33.1108081,17.4911111 C34.330101,16.0150505 34.9308081,14.1178788 34.7853535,12.2023232 C32.9225253,12.399697 31.2017172,13.2974747 29.9659596,14.7168687 C29.3617172,15.410303 28.8988889,16.2170707 28.6040404,17.0909091 C28.3091919,17.9648485 28.1879798,18.8887879 28.2474747,19.809899 C29.1792929,19.819596 30.1010101,19.6159596 30.9434343,19.2142424 C31.7858586,18.8126263 32.5268687,18.2234343 33.1108081,17.4911111 Z" id="Path" fill="#FFFFFF"></path>
                                <path d="M63.5593939,40.1106061 L56.4472727,40.1106061 L54.7393939,45.1961616 L51.7269697,45.1961616 L58.4634343,26.3810101 L61.5931313,26.3810101 L68.329596,45.1961616 L65.2658586,45.1961616 L63.5593939,40.1106061 Z M57.1839394,37.7639394 L62.8214141,37.7639394 L60.0423232,29.5105051 L59.9645455,29.5105051 L57.1839394,37.7639394 Z" id="Shape" fill="#FFFFFF"></path>
                                <path d="M82.8774747,38.3380808 C82.8774747,42.6009091 80.6148485,45.339697 77.2005051,45.339697 C76.3355556,45.3853535 75.4753535,45.1844444 74.7183838,44.76 C73.9614141,44.3354545 73.3382828,43.7046465 72.920303,42.939697 L72.8557576,42.939697 L72.8557576,49.7342424 L70.0634343,49.7342424 L70.0634343,31.4783838 L72.7662626,31.4783838 L72.7662626,33.76 L72.8175758,33.76 C73.2547475,32.9986869 73.8883838,32.3711111 74.6511111,31.9441414 C75.4138384,31.5170707 76.2771717,31.3065657 77.1490909,31.3348485 C80.6016162,31.3349495 82.8774747,34.0870707 82.8774747,38.3380808 Z M80.0073737,38.3380808 C80.0073737,35.5608081 78.5841414,33.7348485 76.4125253,33.7348485 C74.2789899,33.7348485 72.8440404,35.5991919 72.8440404,38.3380808 C72.8440404,41.1020202 74.2789899,42.9530303 76.4125253,42.9530303 C78.5841414,42.9530303 80.0073737,41.1405051 80.0073737,38.3380808 Z" id="Shape" fill="#FFFFFF"></path>
                                <path d="M97.849899,38.3380808 C97.849899,42.6009091 95.5873737,45.339697 92.1729293,45.339697 C91.3079798,45.3853535 90.4477778,45.1843434 89.6908081,44.759899 C88.9338384,44.3354545 88.3107071,43.7046465 87.8928283,42.939697 L87.8281818,42.939697 L87.8281818,49.7342424 L85.0358586,49.7342424 L85.0358586,31.4783838 L87.7386869,31.4783838 L87.7386869,33.76 L87.79,33.76 C88.2271717,32.9986869 88.8608081,32.3711111 89.6235354,31.9441414 C90.3863636,31.5170707 91.249596,31.3065657 92.1215152,31.3348485 C95.5741414,31.3348485 97.849899,34.0869697 97.849899,38.3380808 Z M94.979899,38.3380808 C94.979899,35.5608081 93.5565657,33.7348485 91.3849495,33.7348485 C89.2515152,33.7348485 87.8164646,35.5991919 87.8164646,38.3380808 C87.8164646,41.1020202 89.2515152,42.9530303 91.3849495,42.9530303 C93.5565657,42.9530303 94.979899,41.1405051 94.979899,38.3380808 L94.979899,38.3380808 Z" id="Shape" fill="#FFFFFF"></path>
                                <path d="M107.745455,39.9538384 C107.952525,41.819697 109.749495,43.0447475 112.206061,43.0447475 C114.559596,43.0447475 116.253535,41.819596 116.253535,40.1372727 C116.253535,38.6767677 115.232323,37.8023232 112.814141,37.2031313 L110.39596,36.6156566 C106.969697,35.7811111 105.378788,34.1653535 105.378788,31.5434343 C105.378788,28.2971717 108.184848,26.0672727 112.167677,26.0672727 C116.111111,26.0672727 118.813131,28.2971717 118.90404,31.5434343 L116.085859,31.5434343 C115.917172,29.6657576 114.377778,28.5324242 112.128283,28.5324242 C109.878788,28.5324242 108.339394,29.6790909 108.339394,31.3481818 C108.339394,32.6783838 109.323232,33.4611111 111.728283,34.060303 L113.783838,34.5692929 C117.612121,35.4822222 119.20202,37.0329293 119.20202,39.7850505 C119.20202,43.3050505 116.422222,45.509697 111.99899,45.509697 C107.861616,45.509697 105.067677,43.3568687 104.886869,39.9536364 L107.745455,39.9538384 Z" id="Path" fill="#FFFFFF"></path>
                                <path d="M125.229293,28.2320202 L125.229293,31.4783838 L127.816162,31.4783838 L127.816162,33.7081818 L125.229293,33.7081818 L125.229293,41.2706061 C125.229293,42.4454545 125.747475,42.9929293 126.884848,42.9929293 C127.191919,42.9874747 127.49798,42.9657576 127.80303,42.9277778 L127.80303,45.1442424 C127.291919,45.2406061 126.771717,45.2842424 126.251515,45.2744444 C123.49798,45.2744444 122.424242,44.2313131 122.424242,41.5709091 L122.424242,33.7081818 L120.445455,33.7081818 L120.445455,31.4783838 L122.424242,31.4783838 L122.424242,28.2320202 L125.229293,28.2320202 Z" id="Path" fill="#FFFFFF"></path>
                                <path d="M129.314141,38.3379798 C129.314141,34.0218182 131.835354,31.309697 135.765657,31.309697 C139.710101,31.309697 142.219192,34.0218182 142.219192,38.3379798 C142.219192,42.6659596 139.723232,45.3662626 135.765657,45.3662626 C131.810101,45.3662626 129.314141,42.6658586 129.314141,38.3379798 Z M139.373737,38.3379798 C139.373737,35.3771717 138.028283,33.629798 135.765657,33.629798 C133.50303,33.629798 132.159596,35.3905051 132.159596,38.3379798 C132.159596,41.3105051 133.50303,43.0447475 135.765657,43.0447475 C138.028283,43.0447475 139.373737,41.3105051 139.373737,38.3379798 L139.373737,38.3379798 Z" id="Shape" fill="#FFFFFF"></path>
                                <path d="M144.521212,31.4785859 L147.184848,31.4785859 L147.184848,33.8134343 L147.249495,33.8134343 C147.429293,33.0841414 147.852525,32.439697 148.448485,31.9883838 C149.044444,31.5370707 149.776768,31.3063636 150.521212,31.3349495 C150.843434,31.3338384 151.163636,31.3690909 151.477778,31.440101 L151.477778,34.0738384 C151.071717,33.9486869 150.647475,33.8912121 150.223232,33.9036364 C149.818182,33.8870707 149.413131,33.9591919 149.038384,34.1150505 C148.662626,34.2710101 148.325253,34.5069697 148.048485,34.8067677 C147.771717,35.1065657 147.563636,35.4632323 147.436364,35.8521212 C147.310101,36.2410101 147.267677,36.6529293 147.314141,37.059697 L147.314141,45.1962626 L144.521212,45.1962626 L144.521212,31.4785859 Z" id="Path" fill="#FFFFFF"></path>
                                <path d="M164.350505,41.1670707 C163.974747,43.6572727 161.569697,45.3662626 158.492929,45.3662626 C154.536364,45.3662626 152.079798,42.6925253 152.079798,38.4030303 C152.079798,34.100303 154.549495,31.309697 158.375758,31.309697 C162.139394,31.309697 164.506061,33.9167677 164.506061,38.0760606 L164.506061,39.0408081 L154.89798,39.0408081 L154.89798,39.2109091 C154.853535,39.7157576 154.917172,40.2243434 155.081818,40.7029293 C155.247475,41.1815152 155.512121,41.6189899 155.858586,41.9865657 C156.205051,42.3540404 156.624242,42.6430303 157.089899,42.8344444 C157.555556,43.0257576 158.055556,43.1151515 158.557576,43.0964646 C159.217172,43.1587879 159.879798,43.0047475 160.445455,42.6570707 C161.012121,42.3094949 161.451515,41.7868687 161.69899,41.1670707 L164.350505,41.1670707 Z M154.911103,37.0728283 L161.712121,37.0728283 C161.737374,36.6189899 161.669697,36.1646465 161.512121,35.7385859 C161.354545,35.3125253 161.112121,34.9238384 160.79899,34.5969697 C160.484848,34.27 160.108081,34.0119192 159.690909,33.8388889 C159.274747,33.6658586 158.826263,33.5815152 158.375758,33.5913131 C157.921212,33.5885859 157.470707,33.6766667 157.049495,33.8505051 C156.629293,34.0243434 156.246465,34.2805051 155.924242,34.6042424 C155.60202,34.9278788 155.346465,35.3127273 155.172727,35.7363636 C154.99899,36.160101 154.910101,36.6143434 154.911103,37.0729293 L154.911103,37.0728283 Z" id="Shape" fill="#FFFFFF"></path>
                                <polygon id="Path" fill="#FFFFFF" points="56.3506061 20.7070707 56.3506061 13.3312121 58.7435354 13.3312121 58.7435354 12.0185859 52.5252525 12.0185859 52.5252525 13.3312121 54.9237374 13.3312121 54.9237374 20.7070707"></polygon>
                                <path d="M63.9762626,20.7070707 L65.4864646,20.7070707 L62.6437374,12.0185859 L61.0280808,12.0185859 L58.1854545,20.7070707 L59.6623232,20.7070707 L60.3452525,18.4612121 L63.2933333,18.4612121 L63.9762626,20.7070707 Z M61.799899,13.5540404 L61.8386869,13.5540404 L62.9546465,17.2630303 L60.6783838,17.2630303 L61.799899,13.5540404 Z M60.8559596,10.0497071 C61.0169697,9.97745455 61.250202,9.93531313 61.4334343,9.93531313 C61.7387879,9.93531313 61.949798,10.1159596 61.949798,10.3628283 C61.949798,10.6277778 61.7387879,10.8746465 61.4278788,10.9889899 L61.849798,11.5670707 C62.4328283,11.3261616 62.8325253,10.8324242 62.8325253,10.2905051 C62.8325253,9.61017172 62.3439394,9.18868687 61.6055556,9.18868687 C61.3334343,9.18868687 61.050303,9.23685859 60.8559596,9.33320202 L60.8559596,10.0497071 Z" id="Shape" fill="#FFFFFF"></path>
                                <polygon id="Path" fill="#FFFFFF" points="67.8931313 20.7070707 67.8931313 12.0185859 66.4607071 12.0185859 66.4607071 20.7070707"></polygon>
                                <polygon id="Path" fill="#FFFFFF" points="75.6824242 20.7070707 78.469596 12.0185859 76.9260606 12.0185859 74.8940404 19.0391919 74.8607071 19.0391919 72.8286869 12.0185859 71.2519192 12.0185859 74.0389899 20.7070707"></polygon>
                                <path d="M84.6239394,19.3944444 L80.8707071,19.3944444 L80.8707071,16.9137374 L84.4184848,16.9137374 L84.4184848,15.6794949 L80.8707071,15.6794949 L80.8707071,13.3312121 L84.6239394,13.3312121 L84.6239394,12.0185859 L79.4382828,12.0185859 L79.4382828,20.7070707 L84.6239394,20.7070707 L84.6239394,19.3944444 Z M81.470303,9.79682828 L79.9490909,11.4406061 L81.1039394,11.4406061 L82.0144444,10.4350505 L82.0477778,10.4350505 L82.9582828,11.4406061 L84.1131313,11.4406061 L82.5918182,9.79682828 L81.470303,9.79682828 Z M84.0631313,9.50780808 L83.0748485,8.08080808 L81.8589899,8.08080808 L83.0082828,9.50780808 L84.0631313,9.50780808 Z" id="Shape" fill="#FFFFFF"></path>
                                <polygon id="Path" fill="#FFFFFF" points="91.7580808 20.7070707 91.7580808 13.3312121 94.1510101 13.3312121 94.1510101 12.0185859 87.9327273 12.0185859 87.9327273 13.3312121 90.3312121 13.3312121 90.3312121 20.7070707"></polygon>
                                <path d="M96.679899,13.2770707 L98.2677778,13.2770707 C99.1727273,13.2770707 99.7335354,13.8430303 99.7335354,14.7581818 C99.7335354,15.6974747 99.2060606,16.2454545 98.2955556,16.2454545 L96.679899,16.2454545 L96.679899,13.2770707 Z M96.679899,17.4375758 L98.2288889,17.4375758 L99.8056566,20.7070707 L101.438384,20.7070707 L99.6890909,17.2028283 C100.64404,16.8294949 101.19899,15.8721212 101.19899,14.7221212 C101.19899,13.060303 100.16101,12.0185859 98.4287879,12.0185859 L95.2474747,12.0185859 L95.2474747,20.7070707 L96.679899,20.7070707 L96.679899,17.4375758 Z" id="Shape" fill="#FFFFFF"></path>
                                <path d="M107.653535,19.3944444 L103.9,19.3944444 L103.9,16.9137374 L107.447475,16.9137374 L107.447475,15.6794949 L103.9,15.6794949 L103.9,13.3312121 L107.653535,13.3312121 L107.653535,12.0185859 L102.467677,12.0185859 L102.467677,20.7070707 L107.653535,20.7070707 L107.653535,19.3944444 Z M104.527273,9.5740404 L103.006061,11.4406061 L104.122222,11.4406061 L105.043434,10.2845455 L105.076768,10.2845455 L105.99899,11.4406061 L107.115152,11.4406061 L105.593939,9.5740404 L104.527273,9.5740404 Z" id="Shape" fill="#FFFFFF"></path>
                                <polygon id="Path" fill="#FFFFFF" points="110.392929 20.7070707 110.392929 14.6137374 110.443434 14.6137374 114.424242 20.7070707 115.656566 20.7070707 115.656566 12.0185859 114.279798 12.0185859 114.279798 18.1059596 114.229293 18.1059596 110.254545 12.0185859 109.011111 12.0185859 109.011111 20.7070707"></polygon>
                            </g>
                        </g>
                    </g>
                </g>
            </g>
        </g>
    </g>
</svg>