<?xml version="1.0" encoding="UTF-8"?>
<svg width="200px" height="59px" viewBox="0 0 200 59" version="1.1" xmlns="http://www.w3.org/2000/svg" xmlns:xlink="http://www.w3.org/1999/xlink">
    <title>android-vi</title>
    <defs>
        <linearGradient x1="61.2444671%" y1="4.94615078%" x2="26.3963943%" y2="72.6437699%" id="linearGradient-1">
            <stop stop-color="#00A0FF" offset="0%"></stop>
            <stop stop-color="#00A1FF" offset="1%"></stop>
            <stop stop-color="#00BEFF" offset="26%"></stop>
            <stop stop-color="#00D2FF" offset="51%"></stop>
            <stop stop-color="#00DFFF" offset="76%"></stop>
            <stop stop-color="#00E3FF" offset="100%"></stop>
        </linearGradient>
        <linearGradient x1="107.684402%" y1="50%" x2="-130.64054%" y2="50%" id="linearGradient-2">
            <stop stop-color="#FFE000" offset="0%"></stop>
            <stop stop-color="#FFBD00" offset="41%"></stop>
            <stop stop-color="#FFA500" offset="78%"></stop>
            <stop stop-color="#FF9C00" offset="100%"></stop>
        </linearGradient>
        <linearGradient x1="86.270847%" y1="31.3047442%" x2="-48.6204218%" y2="135.384456%" id="linearGradient-3">
            <stop stop-color="#FF3A44" offset="0%"></stop>
            <stop stop-color="#C31162" offset="100%"></stop>
        </linearGradient>
        <linearGradient x1="-18.8248038%" y1="-10.5112319%" x2="41.390206%" y2="35.9412662%" id="linearGradient-4">
            <stop stop-color="#32A071" offset="0%"></stop>
            <stop stop-color="#2DA771" offset="7%"></stop>
            <stop stop-color="#15CF74" offset="48%"></stop>
            <stop stop-color="#06E775" offset="80%"></stop>
            <stop stop-color="#00F076" offset="100%"></stop>
        </linearGradient>
    </defs>
    <g id="landing" stroke="none" stroke-width="1" fill="none" fill-rule="evenodd">
        <g id="eWalletLanding" transform="translate(-734.000000, -557.000000)" fill-rule="nonzero">
            <g id="banner" transform="translate(0.000000, 170.646563)">
                <g id="content" transform="translate(320.000000, 37.353437)">
                    <g id="Group-3" transform="translate(0.000000, 144.000000)">
                        <g id="Group-5" transform="translate(199.000000, 110.000000)">
                            <g id="Group-2" transform="translate(0.000000, 95.000000)">
                                <g id="android-vi" transform="translate(215.000000, 0.000000)">
                                    <path d="M192.592929,0 L7.40740404,0 C3.31641414,0 0,3.27872727 0,7.32323232 L0,51.2626263 C0,55.3071717 3.31641414,58.5858586 7.40740404,58.5858586 L192.592929,58.5858586 C196.683838,58.5858586 200,55.3071717 200,51.2626263 L200,7.32323232 C200,3.27872727 196.683838,0 192.592929,0 Z" id="Path" fill="#000000"></path>
                                    <path d="M100.948182,31.8561616 C99.7,31.8590909 98.4806061,32.2277778 97.4444444,32.9158586 C96.4081818,33.6038384 95.6016162,34.580101 95.1266667,35.7213131 C94.6517172,36.8625253 94.529697,38.1173737 94.7760606,39.3271717 C95.0224242,40.5368687 95.6261616,41.6472727 96.5109091,42.5177778 C97.3955556,43.3882828 98.5215152,43.98 99.7462626,44.2178788 C100.971111,44.4557576 102.239394,44.3292929 103.391919,43.8543434 C104.543434,43.3793939 105.527273,42.5774747 106.219192,41.549798 C106.910101,40.5221212 107.276768,39.3149495 107.273737,38.0809091 C107.285859,37.2576768 107.130303,36.4405051 106.816162,35.6778788 C106.50303,34.9153535 106.036364,34.2231313 105.446465,33.6423232 C104.856566,33.0615152 104.153535,32.6040404 103.380808,32.2971717 C102.608081,31.990303 101.780808,31.840303 100.948182,31.8561616 L100.948182,31.8561616 Z M100.948182,41.859697 C100.183131,41.9126263 99.419697,41.7366667 98.7570707,41.3549495 C98.0944444,40.9731313 97.5632323,40.4031313 97.2326263,39.7189899 C96.9020202,39.0348485 96.7872727,38.2681818 96.9032323,37.5186869 C97.0191919,36.7691919 97.3606061,36.0715152 97.8829293,35.5163636 C98.4053535,34.9612121 99.0845455,34.5742424 99.8323232,34.4057576 C100.580101,34.2372727 101.361616,34.2951515 102.075758,34.5717172 C102.789899,34.8482828 103.40303,35.3309091 103.836364,35.9567677 C104.269697,36.5825253 104.50202,37.3226263 104.50404,38.0809091 C104.527273,38.5613131 104.453535,39.0416162 104.286869,39.4934343 C104.120202,39.9452525 103.863636,40.3594949 103.532323,40.7116162 C103.20101,41.0638384 102.80101,41.3468687 102.357576,41.5440404 C101.914141,41.7412121 101.434343,41.8484848 100.948182,41.859697 L100.948182,41.859697 Z M87.1408081,31.8561616 C85.8925253,31.8590909 84.6732323,32.2277778 83.6370707,32.9158586 C82.6008081,33.6038384 81.7942424,34.580101 81.3191919,35.7213131 C80.8442424,36.8625253 80.7223232,38.1173737 80.9686869,39.3271717 C81.2150505,40.5368687 81.8187879,41.6472727 82.7034343,42.5177778 C83.5881818,43.3882828 84.7141414,43.98 85.9388889,44.2178788 C87.1637374,44.4557576 88.4323232,44.3292929 89.5844444,43.8543434 C90.7365657,43.3793939 91.720303,42.5774747 92.4113131,41.549798 C93.1023232,40.5221212 93.469596,39.3149495 93.4666667,38.0809091 C93.4787879,37.2576768 93.3232323,36.4405051 93.0091919,35.6778788 C92.6951515,34.9153535 92.2291919,34.2231313 91.6388889,33.6423232 C91.0486869,33.0615152 90.3462626,32.6040404 89.5735354,32.2971717 C88.8007071,31.990303 87.9734343,31.840303 87.1408081,31.8561616 L87.1408081,31.8561616 Z M87.1408081,41.859697 C86.3757576,41.9126263 85.6122222,41.7366667 84.949596,41.3549495 C84.2869697,40.9731313 83.7558586,40.4031313 83.4252525,39.7189899 C83.0946465,39.0348485 82.979899,38.2681818 83.0958586,37.5186869 C83.2118182,36.7691919 83.5531313,36.0715152 84.0755556,35.5163636 C84.5978788,34.9612121 85.2770707,34.5742424 86.0248485,34.4057576 C86.7726263,34.2372727 87.5543434,34.2951515 88.2684848,34.5717172 C88.9825253,34.8482828 89.5959596,35.3309091 90.0288889,35.9567677 C90.4619192,36.5825253 90.6944444,37.3226263 90.6963636,38.0809091 C90.720202,38.5613131 90.6465657,39.0416162 90.479596,39.4934343 C90.3127273,39.9452525 90.0560606,40.3594949 89.7246465,40.7116162 C89.3933333,41.0638384 88.9939394,41.3468687 88.550202,41.5440404 C88.1063636,41.7412121 87.6271717,41.8484848 87.1408081,41.859697 L87.1408081,41.859697 Z M70.7259596,33.7748485 L70.7259596,36.4112121 L77.1259596,36.4112121 C77.0256566,37.6529293 76.5035354,38.8246465 75.6444444,39.7359596 C75.0025253,40.3826263 74.230303,40.8887879 73.3779798,41.2218182 C72.5256566,41.5548485 71.6120202,41.7072727 70.6963636,41.6692929 C68.810303,41.6692929 67.0016162,40.9285859 65.6679798,39.610101 C64.3344444,38.2917172 63.5852525,36.5035354 63.5852525,34.6389899 C63.5852525,32.7744444 64.3344444,30.9862626 65.6679798,29.6677778 C67.0016162,28.3493939 68.810303,27.6086869 70.6963636,27.6086869 C72.5044444,27.5821212 74.250202,28.2609091 75.5555556,29.4980808 L77.4370707,27.6379798 C76.5540404,26.7745455 75.5056566,26.0940404 74.3533333,25.6363636 C73.2009091,25.1785859 71.9676768,24.9528283 70.7259596,24.9723232 C69.4088889,24.9216162 68.0950505,25.1343434 66.8631313,25.5976768 C65.6313131,26.0610101 64.5066667,26.7654545 63.5566667,27.6686869 C62.6067677,28.5720202 61.8510101,29.6556566 61.3348485,30.8546465 C60.8185859,32.0535354 60.5525253,33.3432323 60.5525253,34.6462626 C60.5525253,35.9493939 60.8185859,37.2389899 61.3348485,38.4379798 C61.8510101,39.6369697 62.6067677,40.7205051 63.5566667,41.6238384 C64.5066667,42.5271717 65.6313131,43.2316162 66.8631313,43.6949495 C68.0950505,44.1582828 69.4088889,44.3710101 70.7259596,44.320303 C71.9932323,44.370303 73.2568687,44.1547475 74.4339394,43.6877778 C75.6110101,43.2208081 76.6748485,42.5129293 77.5555556,41.6107071 C79.1113131,39.9211111 79.940303,37.6988889 79.8666667,35.4152525 C79.8720202,34.8655556 79.8273737,34.3165657 79.7333333,33.7748485 L70.7259596,33.7748485 Z M137.851515,35.8253535 C137.465657,34.7016162 136.743434,33.720303 135.779798,33.0115152 C134.817172,32.3027273 133.658586,31.899798 132.459596,31.8561497 C131.648485,31.8545455 130.846465,32.0173737 130.10303,32.3344444 C129.358586,32.6514141 128.687879,33.1160606 128.132323,33.6994949 C127.576768,34.2828283 127.148485,34.9727273 126.873737,35.7262626 C126.59899,36.479899 126.482828,37.2813131 126.533333,38.0809091 C126.521212,39.4178788 126.945455,40.7230303 127.745455,41.8015152 C128.544444,42.879899 129.675758,43.6736364 130.969697,44.0641414 C132.262626,44.4547475 133.649495,44.4211111 134.922222,43.9683838 C136.193939,43.5155556 137.284848,42.6679798 138.029293,41.5521212 L135.881818,40.0874747 C135.561616,40.6151515 135.107071,41.0509091 134.563636,41.3515152 C134.021212,41.6521212 133.408081,41.8070707 132.784848,41.8011111 C132.143434,41.8272727 131.508081,41.6609091 130.963636,41.3236364 C130.418182,40.9864646 129.989899,40.4942424 129.733333,39.9117172 L138.162626,36.469798 L137.851515,35.8253535 Z M129.259596,37.9051515 C129.229293,37.4509091 129.291919,36.9953535 129.442424,36.5652525 C129.592929,36.1351515 129.829293,35.7392929 130.137374,35.4008081 C130.444444,35.0623232 130.818182,34.7881818 131.234343,34.5944444 C131.651515,34.4007071 132.10303,34.2914141 132.562626,34.2728283 C133.038384,34.2427273 133.513131,34.3516162 133.926263,34.5860606 C134.340404,34.820404 134.674747,35.169899 134.888889,35.5910101 L129.259596,37.9051515 Z M122.415152,43.9394949 L125.184848,43.9394949 L125.184848,25.6314141 L122.415152,25.6314141 L122.415152,43.9394949 Z M117.881818,33.2475758 L117.777778,33.2475758 C117.357576,32.7949495 116.843434,32.4365657 116.270707,32.1965657 C115.69899,31.9565657 115.080808,31.8405051 114.459596,31.8561616 C112.840404,31.9337374 111.313131,32.6242424 110.19596,33.7844444 C109.077778,34.9447475 108.453535,36.4857576 108.453535,38.0881818 C108.453535,39.6907071 109.077778,41.2317172 110.19596,42.3919192 C111.313131,43.5522222 112.840404,44.2426263 114.459596,44.320303 C115.087879,44.3327273 115.710101,44.2078788 116.283838,43.9547475 C116.857576,43.7015152 117.367677,43.3262626 117.777778,42.8556566 L117.881818,42.8556566 L117.881818,43.7490909 C117.881818,46.1364646 116.592929,47.4107071 114.518182,47.4107071 C113.825253,47.3956566 113.152525,47.1773737 112.585859,46.7836364 C112.019192,46.389798 111.582828,45.8382828 111.333333,45.1990909 L108.933333,46.180404 C109.376768,47.2821212 110.148485,48.2248485 111.145455,48.8839394 C112.143434,49.5429293 113.319192,49.8872727 114.518182,49.8713131 C117.762626,49.8713131 120.444444,47.9819192 120.444444,43.3829293 L120.444444,32.2223232 L117.881818,32.2223232 L117.881818,33.2475758 Z M114.69596,41.859697 C113.725253,41.799899 112.814141,41.3764646 112.148485,40.6757576 C111.482828,39.9750505 111.112121,39.049697 111.112121,38.0881818 C111.112121,37.1267677 111.482828,36.2014141 112.148485,35.5007071 C112.814141,34.8 113.725253,34.3765657 114.69596,34.3167677 C115.170707,34.3369697 115.636364,34.4514141 116.064646,34.6531313 C116.493939,34.8548485 116.876768,35.139697 117.191919,35.4909091 C117.507071,35.8421212 117.747475,36.2524242 117.89899,36.6973737 C118.050505,37.1422222 118.110101,37.6128283 118.073737,38.0809091 C118.114141,38.5506061 118.058586,39.0235354 117.908081,39.4711111 C117.758586,39.9185859 117.519192,40.3315152 117.20303,40.6847475 C116.886869,41.0379798 116.50202,41.3242424 116.071717,41.5261616 C115.640404,41.7280808 115.172727,41.8416162 114.69596,41.859697 L114.69596,41.859697 Z M150.829293,25.6314141 L144.192929,25.6314141 L144.192929,43.9394949 L146.962626,43.9394949 L146.962626,36.9970707 L150.829293,36.9970707 C151.619192,37.0531313 152.412121,36.9477778 153.158586,36.6875758 C153.905051,36.4274747 154.589899,36.0179798 155.168687,35.4847475 C155.748485,34.9516162 156.210101,34.3061616 156.526263,33.5885859 C156.842424,32.8710101 157.006061,32.0968687 157.006061,31.3142424 C157.006061,30.5316162 156.842424,29.7573737 156.526263,29.039899 C156.210101,28.3223232 155.748485,27.6768687 155.168687,27.1436364 C154.589899,26.6105051 153.905051,26.2010101 153.158586,25.9408081 C152.412121,25.6806061 151.619192,25.5753535 150.829293,25.6314141 L150.829293,25.6314141 Z M150.829293,34.4192929 L146.962626,34.4192929 L146.962626,28.179899 L150.888889,28.179899 C151.729293,28.179899 152.536364,28.510101 153.130303,29.0978788 C153.725253,29.6857576 154.059596,30.4829293 154.059596,31.3142424 C154.059596,32.1454545 153.725253,32.9427273 153.130303,33.5305051 C152.536364,34.1183838 151.729293,34.4485859 150.888889,34.4485859 L150.829293,34.4192929 Z M167.926263,31.7975758 C166.917172,31.7360606 165.912121,31.9682828 165.035354,32.4654545 C164.158586,32.9626263 163.448485,33.7030303 162.992929,34.5950505 L165.437374,35.6056566 C165.683838,35.1653535 166.054545,34.8052525 166.50404,34.5686869 C166.953535,34.3322222 167.462626,34.2293939 167.970707,34.2728283 C168.322222,34.2322222 168.678788,34.2612121 169.018182,34.3582828 C169.358586,34.4552525 169.675758,34.6182828 169.951515,34.8377778 C170.227273,35.0572727 170.456566,35.3288889 170.625253,35.6367677 C170.793939,35.9445455 170.89798,36.2825253 170.933333,36.6309091 L170.933333,36.8066667 C170.042424,36.3437374 169.050505,36.1024242 168.044444,36.1036364 C165.407071,36.1036364 162.711111,37.5682828 162.711111,40.2339394 C162.737374,40.8005051 162.877778,41.3561616 163.125253,41.8677778 C163.373737,42.3794949 163.722222,42.8367677 164.152525,43.2124242 C164.581818,43.5881818 165.083838,43.8746465 165.627273,44.0548485 C166.171717,44.2351515 166.746465,44.3054545 167.318182,44.2617172 C168.014141,44.299697 168.707071,44.1542424 169.326263,43.840303 C169.945455,43.5262626 170.469697,43.0550505 170.844444,42.4748485 L170.933333,42.4748485 L170.933333,43.9394949 L173.6,43.9394949 L173.6,36.8945455 C173.6,33.6869697 171.140404,31.8268687 167.984848,31.8268687 L167.926263,31.7975758 Z M167.584848,41.830404 C166.681818,41.830404 165.422222,41.3763636 165.422222,40.2778788 C165.422222,38.8132323 166.992929,38.3152525 168.384848,38.3152525 C169.265657,38.2937374 170.135354,38.5061616 170.90404,38.930404 C170.811111,39.7257576 170.429293,40.4609091 169.830303,40.9994949 C169.230303,41.5380808 168.454545,41.8437374 167.644444,41.859697 L167.584848,41.830404 Z M183.318182,32.2223232 L180.148485,40.1607071 L180.059596,40.1607071 L176.770707,32.2223232 L173.807071,32.2223232 L178.740404,43.3243434 L175.926263,49.4905051 L178.888889,49.4905051 L186.4,32.2223232 L183.318182,32.2223232 Z M158.429293,43.9394949 L161.184848,43.9394949 L161.184848,25.6314141 L158.429293,25.6314141 L158.429293,43.9394949 Z" id="Shape" fill="#FFFFFF"></path>
                                    <path d="M15.4665657,11.0434343 C14.9943434,11.6206061 14.7614141,12.3535354 14.8147475,13.0939394 L14.8147475,45.4919192 C14.7643434,46.2394949 15.0145455,46.9764646 15.5110101,47.5424242 L15.6147475,47.659596 L33.9258586,29.5126263 L33.9258586,29.0732323 L15.570303,10.9409091 L15.4665657,11.0434343 Z" id="Path" fill="url(#linearGradient-1)"></path>
                                    <path d="M40,35.5615152 L33.9259596,29.5125253 L33.9259596,29.0731313 L40,23.0241414 L40.1333333,23.1120202 L47.4073737,27.1837374 C49.4815152,28.3408081 49.4815152,30.2448485 47.4073737,31.4165657 L40.1629293,35.4882828 L40,35.5615152 Z" id="Path" fill="url(#linearGradient-2)"></path>
                                    <path d="M40.1777778,35.4883838 L33.9259596,29.2929293 L15.4666667,47.5424242 C15.8853535,47.9108081 16.4211111,48.1227273 16.9813131,48.1415152 C17.5414141,48.160202 18.0905051,47.9845455 18.5333333,47.6449495 L40.1777778,35.4883838" id="Path" fill="url(#linearGradient-3)"></path>
                                    <path d="M40.1777778,23.1122222 L18.5333333,10.9556566 C18.0933333,10.6114141 17.5447475,10.4314141 16.9838384,10.4474747 C16.4229293,10.4635354 15.8857576,10.6746465 15.4666667,11.0435354 L33.9259596,29.2930303 L40.1777778,23.1122222 Z" id="Path" fill="url(#linearGradient-4)"></path>
                                    <path d="M40,35.3419192 L18.5333333,47.4252525 C18.1065657,47.7437374 17.5864646,47.9159596 17.0518182,47.9159596 C16.5171717,47.9159596 15.9971717,47.7437374 15.570404,47.4252525 L15.570404,47.4252525 L15.4666667,47.5277778 L15.570404,47.6449495 C15.9971717,47.9634343 16.5171717,48.1356566 17.0518182,48.1356566 C17.5864646,48.1356566 18.1065657,47.9634343 18.5333333,47.6449495 L40.1777778,35.4883838 L40,35.3419192 Z" id="Path" fill="#000000" opacity="0.2"></path>
                                    <path d="M15.4666667,47.3374747 C14.9907071,46.7564646 14.7575758,46.0176768 14.8147475,45.2723232 L14.8147475,45.4920202 C14.7643434,46.2394949 15.0146465,46.9764646 15.5111111,47.5425253 L15.6147475,47.44 L15.4666667,47.3374747 Z" id="Path" fill="#000000" opacity="0.12"></path>
                                    <path d="M47.4074747,31.1969697 L40.000101,35.3419192 L40.1334343,35.4883838 L47.4074747,31.4020202 C47.8368687,31.2225253 48.2093939,30.9319192 48.4857576,30.5607071 C48.7621212,30.189596 48.9321212,29.7516162 48.9778788,29.2929293 C48.8852525,29.709697 48.6948485,30.0991919 48.4221212,30.429899 C48.1493939,30.7606061 47.8018182,31.0233333 47.4074747,31.1969697 Z" id="Path" fill="#000000" opacity="0.12"></path>
                                    <path d="M18.5331313,11.1606061 L47.4072727,27.3888889 C47.8015152,27.5625253 48.1490909,27.8252525 48.4218182,28.1559596 C48.6946465,28.4866667 48.8849495,28.8761616 48.9775758,29.2929293 C48.9318182,28.8342424 48.7618182,28.3963636 48.4854545,28.0251515 C48.2090909,27.6539394 47.8366667,27.3633333 47.4072727,27.1838384 L18.5331313,10.9555556 C16.4739394,9.78385859 14.8146465,10.7505051 14.8146465,13.0939394 L14.8146465,13.3136364 C14.8146465,10.970202 16.4739394,10.0035556 18.5331313,11.1606061 Z" id="Path" fill="#FFFFFF" opacity="0.25"></path>
                                    <polygon id="Path" fill="#FFFFFF" points="64.4314141 20.7070707 64.4314141 13.3312121 66.8243434 13.3312121 66.8243434 12.0185859 60.6060606 12.0185859 60.6060606 13.3312121 63.0045455 13.3312121 63.0045455 20.7070707"></polygon>
                                    <path d="M72.0570707,20.7070707 L73.5672727,20.7070707 L70.7245455,12.0185859 L69.1088889,12.0185859 L66.2662626,20.7070707 L67.7431313,20.7070707 L68.4260606,18.4612121 L71.3741414,18.4612121 L72.0570707,20.7070707 Z M69.8807071,13.5540404 L69.9194949,13.5540404 L71.0354545,17.2630303 L68.7591919,17.2630303 L69.8807071,13.5540404 Z M68.9367677,10.0497071 C69.0977778,9.97745455 69.3310101,9.93531313 69.5142424,9.93531313 C69.819596,9.93531313 70.0306061,10.1159596 70.0306061,10.3628283 C70.0306061,10.6277778 69.819596,10.8746465 69.5086869,10.9889899 L69.9306061,11.5670707 C70.5136364,11.3261616 70.9133333,10.8324242 70.9133333,10.2905051 C70.9133333,9.61017172 70.4247475,9.18868687 69.6863636,9.18868687 C69.4142424,9.18868687 69.1311111,9.23685859 68.9367677,9.33320202 L68.9367677,10.0497071 Z" id="Shape" fill="#FFFFFF"></path>
                                    <polygon id="Path" fill="#FFFFFF" points="75.9739394 20.7070707 75.9739394 12.0185859 74.5415152 12.0185859 74.5415152 20.7070707"></polygon>
                                    <polygon id="Path" fill="#FFFFFF" points="83.7632323 20.7070707 86.550404 12.0185859 85.0068687 12.0185859 82.9748485 19.0391919 82.9415152 19.0391919 80.9094949 12.0185859 79.3327273 12.0185859 82.119798 20.7070707"></polygon>
                                    <path d="M92.7047475,19.3944444 L88.9515152,19.3944444 L88.9515152,16.9137374 L92.4992929,16.9137374 L92.4992929,15.6794949 L88.9515152,15.6794949 L88.9515152,13.3312121 L92.7047475,13.3312121 L92.7047475,12.0185859 L87.5190909,12.0185859 L87.5190909,20.7070707 L92.7047475,20.7070707 L92.7047475,19.3944444 Z M89.5511111,9.79682828 L88.029899,11.4406061 L89.1847475,11.4406061 L90.0952525,10.4350505 L90.1285859,10.4350505 L91.0390909,11.4406061 L92.1939394,11.4406061 L90.6726263,9.79682828 L89.5511111,9.79682828 Z M92.1439394,9.50780808 L91.1556566,8.08080808 L89.939798,8.08080808 L91.0890909,9.50780808 L92.1439394,9.50780808 Z" id="Shape" fill="#FFFFFF"></path>
                                    <polygon id="Path" fill="#FFFFFF" points="99.8388889 20.7070707 99.8388889 13.3312121 102.232323 13.3312121 102.232323 12.0185859 96.0135354 12.0185859 96.0135354 13.3312121 98.4120202 13.3312121 98.4120202 20.7070707"></polygon>
                                    <path d="M104.760606,13.2770707 L106.348485,13.2770707 C107.253535,13.2770707 107.814141,13.8430303 107.814141,14.7581818 C107.814141,15.6974747 107.286869,16.2454545 106.376768,16.2454545 L104.760606,16.2454545 L104.760606,13.2770707 Z M104.760606,17.4375758 L106.310101,17.4375758 L107.886869,20.7070707 L109.519192,20.7070707 L107.769697,17.2028283 C108.725253,16.8294949 109.279798,15.8721212 109.279798,14.7221212 C109.279798,13.060303 108.241414,12.0185859 106.509091,12.0185859 L103.328283,12.0185859 L103.328283,20.7070707 L104.760606,20.7070707 L104.760606,17.4375758 Z" id="Shape" fill="#FFFFFF"></path>
                                    <path d="M115.734343,19.3944444 L111.980808,19.3944444 L111.980808,16.9137374 L115.528283,16.9137374 L115.528283,15.6794949 L111.980808,15.6794949 L111.980808,13.3312121 L115.734343,13.3312121 L115.734343,12.0185859 L110.548485,12.0185859 L110.548485,20.7070707 L115.734343,20.7070707 L115.734343,19.3944444 Z M112.608081,9.5740404 L111.086869,11.4406061 L112.20303,11.4406061 L113.124242,10.2845455 L113.157576,10.2845455 L114.079798,11.4406061 L115.19596,11.4406061 L113.674747,9.5740404 L112.608081,9.5740404 Z" id="Shape" fill="#FFFFFF"></path>
                                    <polygon id="Path" fill="#FFFFFF" points="118.473737 20.7070707 118.473737 14.6137374 118.524242 14.6137374 122.505051 20.7070707 123.737374 20.7070707 123.737374 12.0185859 122.360606 12.0185859 122.360606 18.1059596 122.310101 18.1059596 118.335354 12.0185859 117.091919 12.0185859 117.091919 20.7070707"></polygon>
                                </g>
                            </g>
                        </g>
                    </g>
                </g>
            </g>
        </g>
    </g>
</svg>