<?xml version="1.0" encoding="UTF-8"?>
<svg width="180px" height="180px" viewBox="0 0 180 180" version="1.1" xmlns="http://www.w3.org/2000/svg" xmlns:xlink="http://www.w3.org/1999/xlink">
    <title>qr-taiapp</title>
    <g id="landing" stroke="none" stroke-width="1" fill="none" fill-rule="evenodd">
        <g id="eWalletLanding" transform="translate(-315.000000, -456.000000)" fill-rule="nonzero">
            <g id="banner" transform="translate(315.000000, 170.646563)">
                <g id="content" transform="translate(0.000000, 29.353437)">
                    <g id="Group-3" transform="translate(0.000000, 143.000000)">
                        <g id="qr-taiapp" transform="translate(0.000000, 113.000000)">
                            <rect id="Rectangle" x="0" y="0" width="180" height="180"></rect>
                            <rect id="Rectangle" fill="#004689" x="10.8" y="10.8" width="6.3" height="6.3"></rect>
                            <rect id="Rectangle" fill="#004689" x="17.1" y="10.8" width="6.3" height="6.3"></rect>
                            <rect id="Rectangle" fill="#004689" x="23.4" y="10.8" width="6.3" height="6.3"></rect>
                            <rect id="Rectangle" fill="#004689" x="29.7" y="10.8" width="6.3" height="6.3"></rect>
                            <rect id="Rectangle" fill="#004689" x="36" y="10.8" width="6.3" height="6.3"></rect>
                            <rect id="Rectangle" fill="#004689" x="42.3" y="10.8" width="6.3" height="6.3"></rect>
                            <rect id="Rectangle" fill="#004689" x="48.6" y="10.8" width="6.3" height="6.3"></rect>
                            <rect id="Rectangle" fill="#004689" x="67.5" y="10.8" width="6.3" height="6.3"></rect>
                            <rect id="Rectangle" fill="#004689" x="92.7" y="10.8" width="6.3" height="6.3"></rect>
                            <rect id="Rectangle" fill="#004689" x="111.6" y="10.8" width="6.3" height="6.3"></rect>
                            <rect id="Rectangle" fill="#004689" x="124.2" y="10.8" width="6.3" height="6.3"></rect>
                            <rect id="Rectangle" fill="#004689" x="130.5" y="10.8" width="6.3" height="6.3"></rect>
                            <rect id="Rectangle" fill="#004689" x="136.8" y="10.8" width="6.3" height="6.3"></rect>
                            <rect id="Rectangle" fill="#004689" x="143.1" y="10.8" width="6.3" height="6.3"></rect>
                            <rect id="Rectangle" fill="#004689" x="149.4" y="10.8" width="6.3" height="6.3"></rect>
                            <rect id="Rectangle" fill="#004689" x="155.7" y="10.8" width="6.3" height="6.3"></rect>
                            <rect id="Rectangle" fill="#004689" x="162" y="10.8" width="6.3" height="6.3"></rect>
                            <rect id="Rectangle" fill="#004689" x="10.8" y="17.1" width="6.3" height="6.3"></rect>
                            <rect id="Rectangle" fill="#004689" x="48.6" y="17.1" width="6.3" height="6.3"></rect>
                            <rect id="Rectangle" fill="#004689" x="61.2" y="17.1" width="6.3" height="6.3"></rect>
                            <rect id="Rectangle" fill="#004689" x="67.5" y="17.1" width="6.3" height="6.3"></rect>
                            <rect id="Rectangle" fill="#004689" x="80.1" y="17.1" width="6.3" height="6.3"></rect>
                            <rect id="Rectangle" fill="#004689" x="86.4" y="17.1" width="6.3" height="6.3"></rect>
                            <rect id="Rectangle" fill="#004689" x="92.7" y="17.1" width="6.3" height="6.3"></rect>
                            <rect id="Rectangle" fill="#004689" x="99" y="17.1" width="6.3" height="6.3"></rect>
                            <rect id="Rectangle" fill="#004689" x="105.3" y="17.1" width="6.3" height="6.3"></rect>
                            <rect id="Rectangle" fill="#004689" x="124.2" y="17.1" width="6.3" height="6.3"></rect>
                            <rect id="Rectangle" fill="#004689" x="162" y="17.1" width="6.3" height="6.3"></rect>
                            <rect id="Rectangle" fill="#004689" x="10.8" y="23.4" width="6.3" height="6.3"></rect>
                            <rect id="Rectangle" fill="#004689" x="23.4" y="23.4" width="6.3" height="6.3"></rect>
                            <rect id="Rectangle" fill="#004689" x="29.7" y="23.4" width="6.3" height="6.3"></rect>
                            <rect id="Rectangle" fill="#004689" x="36" y="23.4" width="6.3" height="6.3"></rect>
                            <rect id="Rectangle" fill="#004689" x="48.6" y="23.4" width="6.3" height="6.3"></rect>
                            <rect id="Rectangle" fill="#004689" x="67.5" y="23.4" width="6.3" height="6.3"></rect>
                            <rect id="Rectangle" fill="#004689" x="73.8" y="23.4" width="6.3" height="6.3"></rect>
                            <rect id="Rectangle" fill="#004689" x="80.1" y="23.4" width="6.3" height="6.3"></rect>
                            <rect id="Rectangle" fill="#004689" x="111.6" y="23.4" width="6.3" height="6.3"></rect>
                            <rect id="Rectangle" fill="#004689" x="124.2" y="23.4" width="6.3" height="6.3"></rect>
                            <rect id="Rectangle" fill="#004689" x="136.8" y="23.4" width="6.3" height="6.3"></rect>
                            <rect id="Rectangle" fill="#004689" x="143.1" y="23.4" width="6.3" height="6.3"></rect>
                            <rect id="Rectangle" fill="#004689" x="149.4" y="23.4" width="6.3" height="6.3"></rect>
                            <rect id="Rectangle" fill="#004689" x="162" y="23.4" width="6.3" height="6.3"></rect>
                            <rect id="Rectangle" fill="#004689" x="10.8" y="29.7" width="6.3" height="6.3"></rect>
                            <rect id="Rectangle" fill="#004689" x="23.4" y="29.7" width="6.3" height="6.3"></rect>
                            <rect id="Rectangle" fill="#004689" x="29.7" y="29.7" width="6.3" height="6.3"></rect>
                            <rect id="Rectangle" fill="#004689" x="36" y="29.7" width="6.3" height="6.3"></rect>
                            <rect id="Rectangle" fill="#004689" x="48.6" y="29.7" width="6.3" height="6.3"></rect>
                            <rect id="Rectangle" fill="#004689" x="61.2" y="29.7" width="6.3" height="6.3"></rect>
                            <rect id="Rectangle" fill="#004689" x="67.5" y="29.7" width="6.3" height="6.3"></rect>
                            <rect id="Rectangle" fill="#004689" x="80.1" y="29.7" width="6.3" height="6.3"></rect>
                            <rect id="Rectangle" fill="#004689" x="92.7" y="29.7" width="6.3" height="6.3"></rect>
                            <rect id="Rectangle" fill="#004689" x="105.3" y="29.7" width="6.3" height="6.3"></rect>
                            <rect id="Rectangle" fill="#004689" x="111.6" y="29.7" width="6.3" height="6.3"></rect>
                            <rect id="Rectangle" fill="#004689" x="124.2" y="29.7" width="6.3" height="6.3"></rect>
                            <rect id="Rectangle" fill="#004689" x="136.8" y="29.7" width="6.3" height="6.3"></rect>
                            <rect id="Rectangle" fill="#004689" x="143.1" y="29.7" width="6.3" height="6.3"></rect>
                            <rect id="Rectangle" fill="#004689" x="149.4" y="29.7" width="6.3" height="6.3"></rect>
                            <rect id="Rectangle" fill="#004689" x="162" y="29.7" width="6.3" height="6.3"></rect>
                            <rect id="Rectangle" fill="#004689" x="10.8" y="36" width="6.3" height="6.3"></rect>
                            <rect id="Rectangle" fill="#004689" x="23.4" y="36" width="6.3" height="6.3"></rect>
                            <rect id="Rectangle" fill="#004689" x="29.7" y="36" width="6.3" height="6.3"></rect>
                            <rect id="Rectangle" fill="#004689" x="36" y="36" width="6.3" height="6.3"></rect>
                            <rect id="Rectangle" fill="#004689" x="48.6" y="36" width="6.3" height="6.3"></rect>
                            <rect id="Rectangle" fill="#004689" x="73.8" y="36" width="6.3" height="6.3"></rect>
                            <rect id="Rectangle" fill="#004689" x="86.4" y="36" width="6.3" height="6.3"></rect>
                            <rect id="Rectangle" fill="#004689" x="92.7" y="36" width="6.3" height="6.3"></rect>
                            <rect id="Rectangle" fill="#004689" x="111.6" y="36" width="6.3" height="6.3"></rect>
                            <rect id="Rectangle" fill="#004689" x="124.2" y="36" width="6.3" height="6.3"></rect>
                            <rect id="Rectangle" fill="#004689" x="136.8" y="36" width="6.3" height="6.3"></rect>
                            <rect id="Rectangle" fill="#004689" x="143.1" y="36" width="6.3" height="6.3"></rect>
                            <rect id="Rectangle" fill="#004689" x="149.4" y="36" width="6.3" height="6.3"></rect>
                            <rect id="Rectangle" fill="#004689" x="162" y="36" width="6.3" height="6.3"></rect>
                            <rect id="Rectangle" fill="#004689" x="10.8" y="42.3" width="6.3" height="6.3"></rect>
                            <rect id="Rectangle" fill="#004689" x="48.6" y="42.3" width="6.3" height="6.3"></rect>
                            <rect id="Rectangle" fill="#004689" x="61.2" y="42.3" width="6.3" height="6.3"></rect>
                            <rect id="Rectangle" fill="#004689" x="73.8" y="42.3" width="6.3" height="6.3"></rect>
                            <rect id="Rectangle" fill="#004689" x="92.7" y="42.3" width="6.3" height="6.3"></rect>
                            <rect id="Rectangle" fill="#004689" x="99" y="42.3" width="6.3" height="6.3"></rect>
                            <rect id="Rectangle" fill="#004689" x="105.3" y="42.3" width="6.3" height="6.3"></rect>
                            <rect id="Rectangle" fill="#004689" x="124.2" y="42.3" width="6.3" height="6.3"></rect>
                            <rect id="Rectangle" fill="#004689" x="162" y="42.3" width="6.3" height="6.3"></rect>
                            <rect id="Rectangle" fill="#004689" x="10.8" y="48.6" width="6.3" height="6.3"></rect>
                            <rect id="Rectangle" fill="#004689" x="17.1" y="48.6" width="6.3" height="6.3"></rect>
                            <rect id="Rectangle" fill="#004689" x="23.4" y="48.6" width="6.3" height="6.3"></rect>
                            <rect id="Rectangle" fill="#004689" x="29.7" y="48.6" width="6.3" height="6.3"></rect>
                            <rect id="Rectangle" fill="#004689" x="36" y="48.6" width="6.3" height="6.3"></rect>
                            <rect id="Rectangle" fill="#004689" x="42.3" y="48.6" width="6.3" height="6.3"></rect>
                            <rect id="Rectangle" fill="#004689" x="48.6" y="48.6" width="6.3" height="6.3"></rect>
                            <rect id="Rectangle" fill="#004689" x="61.2" y="48.6" width="6.3" height="6.3"></rect>
                            <rect id="Rectangle" fill="#004689" x="73.8" y="48.6" width="6.3" height="6.3"></rect>
                            <rect id="Rectangle" fill="#004689" x="86.4" y="48.6" width="6.3" height="6.3"></rect>
                            <rect id="Rectangle" fill="#004689" x="99" y="48.6" width="6.3" height="6.3"></rect>
                            <rect id="Rectangle" fill="#004689" x="111.6" y="48.6" width="6.3" height="6.3"></rect>
                            <rect id="Rectangle" fill="#004689" x="124.2" y="48.6" width="6.3" height="6.3"></rect>
                            <rect id="Rectangle" fill="#004689" x="130.5" y="48.6" width="6.3" height="6.3"></rect>
                            <rect id="Rectangle" fill="#004689" x="136.8" y="48.6" width="6.3" height="6.3"></rect>
                            <rect id="Rectangle" fill="#004689" x="143.1" y="48.6" width="6.3" height="6.3"></rect>
                            <rect id="Rectangle" fill="#004689" x="149.4" y="48.6" width="6.3" height="6.3"></rect>
                            <rect id="Rectangle" fill="#004689" x="155.7" y="48.6" width="6.3" height="6.3"></rect>
                            <rect id="Rectangle" fill="#004689" x="162" y="48.6" width="6.3" height="6.3"></rect>
                            <rect id="Rectangle" fill="#004689" x="86.4" y="54.9" width="6.3" height="6.3"></rect>
                            <rect id="Rectangle" fill="#004689" x="99" y="54.9" width="6.3" height="6.3"></rect>
                            <rect id="Rectangle" fill="#004689" x="111.6" y="54.9" width="6.3" height="6.3"></rect>
                            <rect id="Rectangle" fill="#004689" x="10.8" y="61.2" width="6.3" height="6.3"></rect>
                            <rect id="Rectangle" fill="#004689" x="17.1" y="61.2" width="6.3" height="6.3"></rect>
                            <rect id="Rectangle" fill="#004689" x="23.4" y="61.2" width="6.3" height="6.3"></rect>
                            <rect id="Rectangle" fill="#004689" x="29.7" y="61.2" width="6.3" height="6.3"></rect>
                            <rect id="Rectangle" fill="#004689" x="36" y="61.2" width="6.3" height="6.3"></rect>
                            <rect id="Rectangle" fill="#004689" x="48.6" y="61.2" width="6.3" height="6.3"></rect>
                            <rect id="Rectangle" fill="#004689" x="54.9" y="61.2" width="6.3" height="6.3"></rect>
                            <rect id="Rectangle" fill="#004689" x="61.2" y="61.2" width="6.3" height="6.3"></rect>
                            <rect id="Rectangle" fill="#004689" x="67.5" y="61.2" width="6.3" height="6.3"></rect>
                            <rect id="Rectangle" fill="#004689" x="73.8" y="61.2" width="6.3" height="6.3"></rect>
                            <rect id="Rectangle" fill="#004689" x="86.4" y="61.2" width="6.3" height="6.3"></rect>
                            <rect id="Rectangle" fill="#004689" x="92.7" y="61.2" width="6.3" height="6.3"></rect>
                            <rect id="Rectangle" fill="#004689" x="99" y="61.2" width="6.3" height="6.3"></rect>
                            <rect id="Rectangle" fill="#004689" x="117.9" y="61.2" width="6.3" height="6.3"></rect>
                            <rect id="Rectangle" fill="#004689" x="130.5" y="61.2" width="6.3" height="6.3"></rect>
                            <rect id="Rectangle" fill="#004689" x="143.1" y="61.2" width="6.3" height="6.3"></rect>
                            <rect id="Rectangle" fill="#004689" x="155.7" y="61.2" width="6.3" height="6.3"></rect>
                            <rect id="Rectangle" fill="#004689" x="23.4" y="67.5" width="6.3" height="6.3"></rect>
                            <rect id="Rectangle" fill="#004689" x="36" y="67.5" width="6.3" height="6.3"></rect>
                            <rect id="Rectangle" fill="#004689" x="42.3" y="67.5" width="6.3" height="6.3"></rect>
                            <rect id="Rectangle" fill="#004689" x="67.5" y="67.5" width="6.3" height="6.3"></rect>
                            <rect id="Rectangle" fill="#004689" x="99" y="67.5" width="6.3" height="6.3"></rect>
                            <rect id="Rectangle" fill="#004689" x="130.5" y="67.5" width="6.3" height="6.3"></rect>
                            <rect id="Rectangle" fill="#004689" x="155.7" y="67.5" width="6.3" height="6.3"></rect>
                            <rect id="Rectangle" fill="#004689" x="42.3" y="73.8" width="6.3" height="6.3"></rect>
                            <rect id="Rectangle" fill="#004689" x="48.6" y="73.8" width="6.3" height="6.3"></rect>
                            <rect id="Rectangle" fill="#004689" x="61.2" y="73.8" width="6.3" height="6.3"></rect>
                            <rect id="Rectangle" fill="#004689" x="67.5" y="73.8" width="6.3" height="6.3"></rect>
                            <rect id="Rectangle" fill="#004689" x="80.1" y="73.8" width="6.3" height="6.3"></rect>
                            <rect id="Rectangle" fill="#004689" x="86.4" y="73.8" width="6.3" height="6.3"></rect>
                            <rect id="Rectangle" fill="#004689" x="99" y="73.8" width="6.3" height="6.3"></rect>
                            <rect id="Rectangle" fill="#004689" x="105.3" y="73.8" width="6.3" height="6.3"></rect>
                            <rect id="Rectangle" fill="#004689" x="111.6" y="73.8" width="6.3" height="6.3"></rect>
                            <rect id="Rectangle" fill="#004689" x="117.9" y="73.8" width="6.3" height="6.3"></rect>
                            <rect id="Rectangle" fill="#004689" x="143.1" y="73.8" width="6.3" height="6.3"></rect>
                            <rect id="Rectangle" fill="#004689" x="155.7" y="73.8" width="6.3" height="6.3"></rect>
                            <rect id="Rectangle" fill="#004689" x="162" y="73.8" width="6.3" height="6.3"></rect>
                            <rect id="Rectangle" fill="#004689" x="17.1" y="80.1" width="6.3" height="6.3"></rect>
                            <rect id="Rectangle" fill="#004689" x="29.7" y="80.1" width="6.3" height="6.3"></rect>
                            <rect id="Rectangle" fill="#004689" x="67.5" y="80.1" width="6.3" height="6.3"></rect>
                            <rect id="Rectangle" fill="#004689" x="73.8" y="80.1" width="6.3" height="6.3"></rect>
                            <rect id="Rectangle" fill="#004689" x="80.1" y="80.1" width="6.3" height="6.3"></rect>
                            <rect id="Rectangle" fill="#004689" x="105.3" y="80.1" width="6.3" height="6.3"></rect>
                            <rect id="Rectangle" fill="#004689" x="117.9" y="80.1" width="6.3" height="6.3"></rect>
                            <rect id="Rectangle" fill="#004689" x="162" y="80.1" width="6.3" height="6.3"></rect>
                            <rect id="Rectangle" fill="#004689" x="29.7" y="86.4" width="6.3" height="6.3"></rect>
                            <rect id="Rectangle" fill="#004689" x="42.3" y="86.4" width="6.3" height="6.3"></rect>
                            <rect id="Rectangle" fill="#004689" x="48.6" y="86.4" width="6.3" height="6.3"></rect>
                            <rect id="Rectangle" fill="#004689" x="54.9" y="86.4" width="6.3" height="6.3"></rect>
                            <rect id="Rectangle" fill="#004689" x="67.5" y="86.4" width="6.3" height="6.3"></rect>
                            <rect id="Rectangle" fill="#004689" x="80.1" y="86.4" width="6.3" height="6.3"></rect>
                            <rect id="Rectangle" fill="#004689" x="86.4" y="86.4" width="6.3" height="6.3"></rect>
                            <rect id="Rectangle" fill="#004689" x="92.7" y="86.4" width="6.3" height="6.3"></rect>
                            <rect id="Rectangle" fill="#004689" x="99" y="86.4" width="6.3" height="6.3"></rect>
                            <rect id="Rectangle" fill="#004689" x="111.6" y="86.4" width="6.3" height="6.3"></rect>
                            <rect id="Rectangle" fill="#004689" x="117.9" y="86.4" width="6.3" height="6.3"></rect>
                            <rect id="Rectangle" fill="#004689" x="124.2" y="86.4" width="6.3" height="6.3"></rect>
                            <rect id="Rectangle" fill="#004689" x="130.5" y="86.4" width="6.3" height="6.3"></rect>
                            <rect id="Rectangle" fill="#004689" x="136.8" y="86.4" width="6.3" height="6.3"></rect>
                            <rect id="Rectangle" fill="#004689" x="149.4" y="86.4" width="6.3" height="6.3"></rect>
                            <rect id="Rectangle" fill="#004689" x="155.7" y="86.4" width="6.3" height="6.3"></rect>
                            <rect id="Rectangle" fill="#004689" x="162" y="86.4" width="6.3" height="6.3"></rect>
                            <rect id="Rectangle" fill="#004689" x="10.8" y="92.7" width="6.3" height="6.3"></rect>
                            <rect id="Rectangle" fill="#004689" x="23.4" y="92.7" width="6.3" height="6.3"></rect>
                            <rect id="Rectangle" fill="#004689" x="29.7" y="92.7" width="6.3" height="6.3"></rect>
                            <rect id="Rectangle" fill="#004689" x="42.3" y="92.7" width="6.3" height="6.3"></rect>
                            <rect id="Rectangle" fill="#004689" x="61.2" y="92.7" width="6.3" height="6.3"></rect>
                            <rect id="Rectangle" fill="#004689" x="67.5" y="92.7" width="6.3" height="6.3"></rect>
                            <rect id="Rectangle" fill="#004689" x="73.8" y="92.7" width="6.3" height="6.3"></rect>
                            <rect id="Rectangle" fill="#004689" x="86.4" y="92.7" width="6.3" height="6.3"></rect>
                            <rect id="Rectangle" fill="#004689" x="111.6" y="92.7" width="6.3" height="6.3"></rect>
                            <rect id="Rectangle" fill="#004689" x="117.9" y="92.7" width="6.3" height="6.3"></rect>
                            <rect id="Rectangle" fill="#004689" x="130.5" y="92.7" width="6.3" height="6.3"></rect>
                            <rect id="Rectangle" fill="#004689" x="143.1" y="92.7" width="6.3" height="6.3"></rect>
                            <rect id="Rectangle" fill="#004689" x="155.7" y="92.7" width="6.3" height="6.3"></rect>
                            <rect id="Rectangle" fill="#004689" x="10.8" y="99" width="6.3" height="6.3"></rect>
                            <rect id="Rectangle" fill="#004689" x="29.7" y="99" width="6.3" height="6.3"></rect>
                            <rect id="Rectangle" fill="#004689" x="36" y="99" width="6.3" height="6.3"></rect>
                            <rect id="Rectangle" fill="#004689" x="42.3" y="99" width="6.3" height="6.3"></rect>
                            <rect id="Rectangle" fill="#004689" x="48.6" y="99" width="6.3" height="6.3"></rect>
                            <rect id="Rectangle" fill="#004689" x="54.9" y="99" width="6.3" height="6.3"></rect>
                            <rect id="Rectangle" fill="#004689" x="61.2" y="99" width="6.3" height="6.3"></rect>
                            <rect id="Rectangle" fill="#004689" x="67.5" y="99" width="6.3" height="6.3"></rect>
                            <rect id="Rectangle" fill="#004689" x="73.8" y="99" width="6.3" height="6.3"></rect>
                            <rect id="Rectangle" fill="#004689" x="86.4" y="99" width="6.3" height="6.3"></rect>
                            <rect id="Rectangle" fill="#004689" x="105.3" y="99" width="6.3" height="6.3"></rect>
                            <rect id="Rectangle" fill="#004689" x="111.6" y="99" width="6.3" height="6.3"></rect>
                            <rect id="Rectangle" fill="#004689" x="124.2" y="99" width="6.3" height="6.3"></rect>
                            <rect id="Rectangle" fill="#004689" x="130.5" y="99" width="6.3" height="6.3"></rect>
                            <rect id="Rectangle" fill="#004689" x="136.8" y="99" width="6.3" height="6.3"></rect>
                            <rect id="Rectangle" fill="#004689" x="143.1" y="99" width="6.3" height="6.3"></rect>
                            <rect id="Rectangle" fill="#004689" x="155.7" y="99" width="6.3" height="6.3"></rect>
                            <rect id="Rectangle" fill="#004689" x="162" y="99" width="6.3" height="6.3"></rect>
                            <rect id="Rectangle" fill="#004689" x="10.8" y="105.3" width="6.3" height="6.3"></rect>
                            <rect id="Rectangle" fill="#004689" x="23.4" y="105.3" width="6.3" height="6.3"></rect>
                            <rect id="Rectangle" fill="#004689" x="67.5" y="105.3" width="6.3" height="6.3"></rect>
                            <rect id="Rectangle" fill="#004689" x="73.8" y="105.3" width="6.3" height="6.3"></rect>
                            <rect id="Rectangle" fill="#004689" x="86.4" y="105.3" width="6.3" height="6.3"></rect>
                            <rect id="Rectangle" fill="#004689" x="99" y="105.3" width="6.3" height="6.3"></rect>
                            <rect id="Rectangle" fill="#004689" x="105.3" y="105.3" width="6.3" height="6.3"></rect>
                            <rect id="Rectangle" fill="#004689" x="117.9" y="105.3" width="6.3" height="6.3"></rect>
                            <rect id="Rectangle" fill="#004689" x="130.5" y="105.3" width="6.3" height="6.3"></rect>
                            <rect id="Rectangle" fill="#004689" x="136.8" y="105.3" width="6.3" height="6.3"></rect>
                            <rect id="Rectangle" fill="#004689" x="162" y="105.3" width="6.3" height="6.3"></rect>
                            <rect id="Rectangle" fill="#004689" x="10.8" y="111.6" width="6.3" height="6.3"></rect>
                            <rect id="Rectangle" fill="#004689" x="29.7" y="111.6" width="6.3" height="6.3"></rect>
                            <rect id="Rectangle" fill="#004689" x="42.3" y="111.6" width="6.3" height="6.3"></rect>
                            <rect id="Rectangle" fill="#004689" x="48.6" y="111.6" width="6.3" height="6.3"></rect>
                            <rect id="Rectangle" fill="#004689" x="61.2" y="111.6" width="6.3" height="6.3"></rect>
                            <rect id="Rectangle" fill="#004689" x="67.5" y="111.6" width="6.3" height="6.3"></rect>
                            <rect id="Rectangle" fill="#004689" x="92.7" y="111.6" width="6.3" height="6.3"></rect>
                            <rect id="Rectangle" fill="#004689" x="99" y="111.6" width="6.3" height="6.3"></rect>
                            <rect id="Rectangle" fill="#004689" x="105.3" y="111.6" width="6.3" height="6.3"></rect>
                            <rect id="Rectangle" fill="#004689" x="111.6" y="111.6" width="6.3" height="6.3"></rect>
                            <rect id="Rectangle" fill="#004689" x="117.9" y="111.6" width="6.3" height="6.3"></rect>
                            <rect id="Rectangle" fill="#004689" x="124.2" y="111.6" width="6.3" height="6.3"></rect>
                            <rect id="Rectangle" fill="#004689" x="130.5" y="111.6" width="6.3" height="6.3"></rect>
                            <rect id="Rectangle" fill="#004689" x="136.8" y="111.6" width="6.3" height="6.3"></rect>
                            <rect id="Rectangle" fill="#004689" x="149.4" y="111.6" width="6.3" height="6.3"></rect>
                            <rect id="Rectangle" fill="#004689" x="61.2" y="117.9" width="6.3" height="6.3"></rect>
                            <rect id="Rectangle" fill="#004689" x="73.8" y="117.9" width="6.3" height="6.3"></rect>
                            <rect id="Rectangle" fill="#004689" x="80.1" y="117.9" width="6.3" height="6.3"></rect>
                            <rect id="Rectangle" fill="#004689" x="92.7" y="117.9" width="6.3" height="6.3"></rect>
                            <rect id="Rectangle" fill="#004689" x="105.3" y="117.9" width="6.3" height="6.3"></rect>
                            <rect id="Rectangle" fill="#004689" x="111.6" y="117.9" width="6.3" height="6.3"></rect>
                            <rect id="Rectangle" fill="#004689" x="136.8" y="117.9" width="6.3" height="6.3"></rect>
                            <rect id="Rectangle" fill="#004689" x="143.1" y="117.9" width="6.3" height="6.3"></rect>
                            <rect id="Rectangle" fill="#004689" x="10.8" y="124.2" width="6.3" height="6.3"></rect>
                            <rect id="Rectangle" fill="#004689" x="17.1" y="124.2" width="6.3" height="6.3"></rect>
                            <rect id="Rectangle" fill="#004689" x="23.4" y="124.2" width="6.3" height="6.3"></rect>
                            <rect id="Rectangle" fill="#004689" x="29.7" y="124.2" width="6.3" height="6.3"></rect>
                            <rect id="Rectangle" fill="#004689" x="36" y="124.2" width="6.3" height="6.3"></rect>
                            <rect id="Rectangle" fill="#004689" x="42.3" y="124.2" width="6.3" height="6.3"></rect>
                            <rect id="Rectangle" fill="#004689" x="48.6" y="124.2" width="6.3" height="6.3"></rect>
                            <rect id="Rectangle" fill="#004689" x="61.2" y="124.2" width="6.3" height="6.3"></rect>
                            <rect id="Rectangle" fill="#004689" x="73.8" y="124.2" width="6.3" height="6.3"></rect>
                            <rect id="Rectangle" fill="#004689" x="86.4" y="124.2" width="6.3" height="6.3"></rect>
                            <rect id="Rectangle" fill="#004689" x="111.6" y="124.2" width="6.3" height="6.3"></rect>
                            <rect id="Rectangle" fill="#004689" x="124.2" y="124.2" width="6.3" height="6.3"></rect>
                            <rect id="Rectangle" fill="#004689" x="136.8" y="124.2" width="6.3" height="6.3"></rect>
                            <rect id="Rectangle" fill="#004689" x="149.4" y="124.2" width="6.3" height="6.3"></rect>
                            <rect id="Rectangle" fill="#004689" x="155.7" y="124.2" width="6.3" height="6.3"></rect>
                            <rect id="Rectangle" fill="#004689" x="162" y="124.2" width="6.3" height="6.3"></rect>
                            <rect id="Rectangle" fill="#004689" x="10.8" y="130.5" width="6.3" height="6.3"></rect>
                            <rect id="Rectangle" fill="#004689" x="48.6" y="130.5" width="6.3" height="6.3"></rect>
                            <rect id="Rectangle" fill="#004689" x="67.5" y="130.5" width="6.3" height="6.3"></rect>
                            <rect id="Rectangle" fill="#004689" x="86.4" y="130.5" width="6.3" height="6.3"></rect>
                            <rect id="Rectangle" fill="#004689" x="99" y="130.5" width="6.3" height="6.3"></rect>
                            <rect id="Rectangle" fill="#004689" x="111.6" y="130.5" width="6.3" height="6.3"></rect>
                            <rect id="Rectangle" fill="#004689" x="136.8" y="130.5" width="6.3" height="6.3"></rect>
                            <rect id="Rectangle" fill="#004689" x="143.1" y="130.5" width="6.3" height="6.3"></rect>
                            <rect id="Rectangle" fill="#004689" x="10.8" y="136.8" width="6.3" height="6.3"></rect>
                            <rect id="Rectangle" fill="#004689" x="23.4" y="136.8" width="6.3" height="6.3"></rect>
                            <rect id="Rectangle" fill="#004689" x="29.7" y="136.8" width="6.3" height="6.3"></rect>
                            <rect id="Rectangle" fill="#004689" x="36" y="136.8" width="6.3" height="6.3"></rect>
                            <rect id="Rectangle" fill="#004689" x="48.6" y="136.8" width="6.3" height="6.3"></rect>
                            <rect id="Rectangle" fill="#004689" x="61.2" y="136.8" width="6.3" height="6.3"></rect>
                            <rect id="Rectangle" fill="#004689" x="67.5" y="136.8" width="6.3" height="6.3"></rect>
                            <rect id="Rectangle" fill="#004689" x="73.8" y="136.8" width="6.3" height="6.3"></rect>
                            <rect id="Rectangle" fill="#004689" x="92.7" y="136.8" width="6.3" height="6.3"></rect>
                            <rect id="Rectangle" fill="#004689" x="105.3" y="136.8" width="6.3" height="6.3"></rect>
                            <rect id="Rectangle" fill="#004689" x="111.6" y="136.8" width="6.3" height="6.3"></rect>
                            <rect id="Rectangle" fill="#004689" x="117.9" y="136.8" width="6.3" height="6.3"></rect>
                            <rect id="Rectangle" fill="#004689" x="124.2" y="136.8" width="6.3" height="6.3"></rect>
                            <rect id="Rectangle" fill="#004689" x="130.5" y="136.8" width="6.3" height="6.3"></rect>
                            <rect id="Rectangle" fill="#004689" x="136.8" y="136.8" width="6.3" height="6.3"></rect>
                            <rect id="Rectangle" fill="#004689" x="149.4" y="136.8" width="6.3" height="6.3"></rect>
                            <rect id="Rectangle" fill="#004689" x="10.8" y="143.1" width="6.3" height="6.3"></rect>
                            <rect id="Rectangle" fill="#004689" x="23.4" y="143.1" width="6.3" height="6.3"></rect>
                            <rect id="Rectangle" fill="#004689" x="29.7" y="143.1" width="6.3" height="6.3"></rect>
                            <rect id="Rectangle" fill="#004689" x="36" y="143.1" width="6.3" height="6.3"></rect>
                            <rect id="Rectangle" fill="#004689" x="48.6" y="143.1" width="6.3" height="6.3"></rect>
                            <rect id="Rectangle" fill="#004689" x="61.2" y="143.1" width="6.3" height="6.3"></rect>
                            <rect id="Rectangle" fill="#004689" x="80.1" y="143.1" width="6.3" height="6.3"></rect>
                            <rect id="Rectangle" fill="#004689" x="92.7" y="143.1" width="6.3" height="6.3"></rect>
                            <rect id="Rectangle" fill="#004689" x="105.3" y="143.1" width="6.3" height="6.3"></rect>
                            <rect id="Rectangle" fill="#004689" x="117.9" y="143.1" width="6.3" height="6.3"></rect>
                            <rect id="Rectangle" fill="#004689" x="124.2" y="143.1" width="6.3" height="6.3"></rect>
                            <rect id="Rectangle" fill="#004689" x="136.8" y="143.1" width="6.3" height="6.3"></rect>
                            <rect id="Rectangle" fill="#004689" x="143.1" y="143.1" width="6.3" height="6.3"></rect>
                            <rect id="Rectangle" fill="#004689" x="149.4" y="143.1" width="6.3" height="6.3"></rect>
                            <rect id="Rectangle" fill="#004689" x="155.7" y="143.1" width="6.3" height="6.3"></rect>
                            <rect id="Rectangle" fill="#004689" x="162" y="143.1" width="6.3" height="6.3"></rect>
                            <rect id="Rectangle" fill="#004689" x="10.8" y="149.4" width="6.3" height="6.3"></rect>
                            <rect id="Rectangle" fill="#004689" x="23.4" y="149.4" width="6.3" height="6.3"></rect>
                            <rect id="Rectangle" fill="#004689" x="29.7" y="149.4" width="6.3" height="6.3"></rect>
                            <rect id="Rectangle" fill="#004689" x="36" y="149.4" width="6.3" height="6.3"></rect>
                            <rect id="Rectangle" fill="#004689" x="48.6" y="149.4" width="6.3" height="6.3"></rect>
                            <rect id="Rectangle" fill="#004689" x="61.2" y="149.4" width="6.3" height="6.3"></rect>
                            <rect id="Rectangle" fill="#004689" x="67.5" y="149.4" width="6.3" height="6.3"></rect>
                            <rect id="Rectangle" fill="#004689" x="73.8" y="149.4" width="6.3" height="6.3"></rect>
                            <rect id="Rectangle" fill="#004689" x="99" y="149.4" width="6.3" height="6.3"></rect>
                            <rect id="Rectangle" fill="#004689" x="105.3" y="149.4" width="6.3" height="6.3"></rect>
                            <rect id="Rectangle" fill="#004689" x="117.9" y="149.4" width="6.3" height="6.3"></rect>
                            <rect id="Rectangle" fill="#004689" x="143.1" y="149.4" width="6.3" height="6.3"></rect>
                            <rect id="Rectangle" fill="#004689" x="149.4" y="149.4" width="6.3" height="6.3"></rect>
                            <rect id="Rectangle" fill="#004689" x="162" y="149.4" width="6.3" height="6.3"></rect>
                            <rect id="Rectangle" fill="#004689" x="10.8" y="155.7" width="6.3" height="6.3"></rect>
                            <rect id="Rectangle" fill="#004689" x="48.6" y="155.7" width="6.3" height="6.3"></rect>
                            <rect id="Rectangle" fill="#004689" x="61.2" y="155.7" width="6.3" height="6.3"></rect>
                            <rect id="Rectangle" fill="#004689" x="86.4" y="155.7" width="6.3" height="6.3"></rect>
                            <rect id="Rectangle" fill="#004689" x="99" y="155.7" width="6.3" height="6.3"></rect>
                            <rect id="Rectangle" fill="#004689" x="111.6" y="155.7" width="6.3" height="6.3"></rect>
                            <rect id="Rectangle" fill="#004689" x="117.9" y="155.7" width="6.3" height="6.3"></rect>
                            <rect id="Rectangle" fill="#004689" x="124.2" y="155.7" width="6.3" height="6.3"></rect>
                            <rect id="Rectangle" fill="#004689" x="130.5" y="155.7" width="6.3" height="6.3"></rect>
                            <rect id="Rectangle" fill="#004689" x="136.8" y="155.7" width="6.3" height="6.3"></rect>
                            <rect id="Rectangle" fill="#004689" x="143.1" y="155.7" width="6.3" height="6.3"></rect>
                            <rect id="Rectangle" fill="#004689" x="162" y="155.7" width="6.3" height="6.3"></rect>
                            <rect id="Rectangle" fill="#004689" x="10.8" y="162" width="6.3" height="6.3"></rect>
                            <rect id="Rectangle" fill="#004689" x="17.1" y="162" width="6.3" height="6.3"></rect>
                            <rect id="Rectangle" fill="#004689" x="23.4" y="162" width="6.3" height="6.3"></rect>
                            <rect id="Rectangle" fill="#004689" x="29.7" y="162" width="6.3" height="6.3"></rect>
                            <rect id="Rectangle" fill="#004689" x="36" y="162" width="6.3" height="6.3"></rect>
                            <rect id="Rectangle" fill="#004689" x="42.3" y="162" width="6.3" height="6.3"></rect>
                            <rect id="Rectangle" fill="#004689" x="48.6" y="162" width="6.3" height="6.3"></rect>
                            <rect id="Rectangle" fill="#004689" x="61.2" y="162" width="6.3" height="6.3"></rect>
                            <rect id="Rectangle" fill="#004689" x="86.4" y="162" width="6.3" height="6.3"></rect>
                            <rect id="Rectangle" fill="#004689" x="92.7" y="162" width="6.3" height="6.3"></rect>
                            <rect id="Rectangle" fill="#004689" x="99" y="162" width="6.3" height="6.3"></rect>
                            <rect id="Rectangle" fill="#004689" x="124.2" y="162" width="6.3" height="6.3"></rect>
                            <rect id="Rectangle" fill="#004689" x="130.5" y="162" width="6.3" height="6.3"></rect>
                            <rect id="Rectangle" fill="#004689" x="136.8" y="162" width="6.3" height="6.3"></rect>
                            <rect id="Rectangle" fill="#004689" x="143.1" y="162" width="6.3" height="6.3"></rect>
                            <rect id="Rectangle" fill="#004689" x="149.4" y="162" width="6.3" height="6.3"></rect>
                            <rect id="Rectangle" fill="#004689" x="155.7" y="162" width="6.3" height="6.3"></rect>
                            <rect id="Rectangle" fill="#004689" x="162" y="162" width="6.3" height="6.3"></rect>
                        </g>
                    </g>
                </g>
            </g>
        </g>
    </g>
</svg>